<?xml version="1.0" encoding="UTF-8" standalone="no"?>
<!DOCTYPE svg PUBLIC "-//W3C//DTD SVG 1.1//EN"
 "http://www.w3.org/Graphics/SVG/1.1/DTD/svg11.dtd">
<!-- Generated by graphviz version 2.43.0 (0)
 -->
<!-- Title: zero Pages: 1 -->
<svg width="540pt" height="555pt"
 viewBox="0.00 0.00 540.05 554.87" xmlns="http://www.w3.org/2000/svg" xmlns:xlink="http://www.w3.org/1999/xlink">
<g id="graph0" class="graph" transform="scale(1 1) rotate(0) translate(4 550.87)">
<title>zero</title>
<polygon fill="white" stroke="transparent" points="-4,4 -4,-550.87 536.05,-550.87 536.05,4 -4,4"/>
<!-- reset -->
<g id="node1" class="node">
<title>reset</title>
<ellipse fill="black" stroke="black" cx="304.05" cy="-545.07" rx="1.8" ry="1.8"/>
</g>
<!-- START -->
<g id="node2" class="node">
<title>START</title>
<ellipse fill="none" stroke="black" cx="304.05" cy="-453.92" rx="38.19" ry="38.19"/>
<text text-anchor="middle" x="304.05" y="-450.22" font-family="Times,serif" font-size="14.00">START</text>
</g>
<!-- reset&#45;&gt;START -->
<g id="edge1" class="edge">
<title>reset&#45;&gt;START</title>
<path fill="none" stroke="black" d="M304.05,-543.07C304.05,-538.74 304.05,-521.05 304.05,-502.63"/>
<polygon fill="black" stroke="black" points="307.55,-502.41 304.05,-492.41 300.55,-502.41 307.55,-502.41"/>
<text text-anchor="middle" x="366.55" y="-514.07" font-family="Times,serif" font-size="14.00">[reset=1&#39;b0 / out=1&#39;b0]</text>
</g>
<!-- START&#45;&gt;START -->
<g id="edge2" class="edge">
<title>START&#45;&gt;START</title>
<path fill="none" stroke="black" d="M340.63,-465.53C351.72,-465.24 360.39,-461.37 360.39,-453.92 360.39,-448.92 356.48,-445.53 350.54,-443.76"/>
<polygon fill="black" stroke="black" points="351.03,-440.29 340.63,-442.32 350.02,-447.22 351.03,-440.29"/>
<text text-anchor="middle" x="415.39" y="-450.22" font-family="Times,serif" font-size="14.00">[in=1&#39;b1 / out=1&#39;b0]</text>
</g>
<!-- FIRST0 -->
<g id="node3" class="node">
<title>FIRST0</title>
<ellipse fill="none" stroke="black" cx="207.05" cy="-325.58" rx="38.99" ry="38.99"/>
<text text-anchor="middle" x="207.05" y="-321.88" font-family="Times,serif" font-size="14.00">FIRST0</text>
</g>
<!-- START&#45;&gt;FIRST0 -->
<g id="edge3" class="edge">
<title>START&#45;&gt;FIRST0</title>
<path fill="none" stroke="black" d="M281.06,-422.98C267.78,-405.69 250.95,-383.76 236.68,-365.18"/>
<polygon fill="black" stroke="black" points="239.41,-362.98 230.54,-357.18 233.86,-367.25 239.41,-362.98"/>
<text text-anchor="middle" x="317.05" y="-386.38" font-family="Times,serif" font-size="14.00">[in=1&#39;b0 / out=1&#39;b0]</text>
</g>
<!-- FIRST0&#45;&gt;FIRST0 -->
<g id="edge4" class="edge">
<title>FIRST0&#45;&gt;FIRST0</title>
<path fill="none" stroke="black" d="M244.32,-337.55C255.41,-337.2 264.04,-333.21 264.04,-325.58 264.04,-320.46 260.15,-316.97 254.23,-315.13"/>
<polygon fill="black" stroke="black" points="254.74,-311.67 244.32,-313.61 253.67,-318.59 254.74,-311.67"/>
<text text-anchor="middle" x="319.04" y="-321.88" font-family="Times,serif" font-size="14.00">[in=1&#39;b1 / out=1&#39;b0]</text>
</g>
<!-- SECOND0 -->
<g id="node4" class="node">
<title>SECOND0</title>
<ellipse fill="none" stroke="black" cx="50.05" cy="-185.54" rx="50.09" ry="50.09"/>
<text text-anchor="middle" x="50.05" y="-181.84" font-family="Times,serif" font-size="14.00">SECOND0</text>
</g>
<!-- FIRST0&#45;&gt;SECOND0 -->
<g id="edge5" class="edge">
<title>FIRST0&#45;&gt;SECOND0</title>
<path fill="none" stroke="black" d="M177.13,-300.04C165.46,-290.35 152.04,-279.05 140.05,-268.58 124.85,-255.32 108.49,-240.55 93.94,-227.24"/>
<polygon fill="black" stroke="black" points="96.24,-224.61 86.51,-220.43 91.51,-229.77 96.24,-224.61"/>
<text text-anchor="middle" x="195.05" y="-257.38" font-family="Times,serif" font-size="14.00">[in=1&#39;b0 / out=1&#39;b0]</text>
</g>
<!-- SECOND0&#45;&gt;SECOND0 -->
<g id="edge6" class="edge">
<title>SECOND0&#45;&gt;SECOND0</title>
<path fill="none" stroke="black" d="M98.36,-199.14C109.72,-198.02 118.09,-193.49 118.09,-185.54 118.09,-180.2 114.31,-176.4 108.39,-174.14"/>
<polygon fill="black" stroke="black" points="108.88,-170.67 98.36,-171.94 107.38,-177.5 108.88,-170.67"/>
<text text-anchor="middle" x="173.09" y="-181.84" font-family="Times,serif" font-size="14.00">[in=1&#39;b1 / out=1&#39;b0]</text>
</g>
<!-- THIRD0 -->
<g id="node5" class="node">
<title>THIRD0</title>
<ellipse fill="none" stroke="black" cx="264.05" cy="-42.25" rx="42.49" ry="42.49"/>
<text text-anchor="middle" x="264.05" y="-38.55" font-family="Times,serif" font-size="14.00">THIRD0</text>
</g>
<!-- SECOND0&#45;&gt;THIRD0 -->
<g id="edge7" class="edge">
<title>SECOND0&#45;&gt;THIRD0</title>
<path fill="none" stroke="black" d="M84.37,-148.83C100.37,-133.38 120.23,-115.83 140.05,-102.49 163.44,-86.74 191.67,-72.91 215.28,-62.57"/>
<polygon fill="black" stroke="black" points="216.95,-65.67 224.75,-58.51 214.18,-59.24 216.95,-65.67"/>
<text text-anchor="middle" x="195.05" y="-106.29" font-family="Times,serif" font-size="14.00">[in=1&#39;b0 / out=1&#39;b1]</text>
</g>
<!-- THIRD0&#45;&gt;START -->
<g id="edge8" class="edge">
<title>THIRD0&#45;&gt;START</title>
<path fill="none" stroke="black" d="M302.08,-60.64C330.45,-75.91 367.09,-101.08 384.05,-135.49 435.54,-240.03 438.17,-298.98 376.05,-397.58 368.4,-409.71 357.11,-420.2 345.71,-428.69"/>
<polygon fill="black" stroke="black" points="343.61,-425.89 337.45,-434.52 347.64,-431.62 343.61,-425.89"/>
<text text-anchor="middle" x="477.05" y="-257.38" font-family="Times,serif" font-size="14.00">[in=1&#39;b1 / out=1&#39;b0]</text>
</g>
<!-- THIRD0&#45;&gt;FIRST0 -->
<g id="edge9" class="edge">
<title>THIRD0&#45;&gt;FIRST0</title>
<path fill="none" stroke="black" d="M268.54,-84.62C271.98,-130.99 272.87,-207.65 250.05,-268.58 247.47,-275.45 243.76,-282.16 239.57,-288.42"/>
<polygon fill="black" stroke="black" points="236.65,-286.49 233.63,-296.65 242.32,-290.59 236.65,-286.49"/>
<text text-anchor="middle" x="325.05" y="-181.84" font-family="Times,serif" font-size="14.00">[in=1&#39;b0 / out=1&#39;b0]</text>
</g>
</g>
</svg>
