<?xml version="1.0" encoding="UTF-8" standalone="no"?>
<!DOCTYPE svg PUBLIC "-//W3C//DTD SVG 1.1//EN"
 "http://www.w3.org/Graphics/SVG/1.1/DTD/svg11.dtd">
<!-- Generated by graphviz version 2.43.0 (0)
 -->
<!-- Title: Mealy Pages: 1 -->
<svg width="675pt" height="353pt"
 viewBox="0.00 0.00 674.59 353.08" xmlns="http://www.w3.org/2000/svg" xmlns:xlink="http://www.w3.org/1999/xlink">
<g id="graph0" class="graph" transform="scale(1 1) rotate(0) translate(4 349.08)">
<title>Mealy</title>
<polygon fill="white" stroke="transparent" points="-4,4 -4,-349.08 670.59,-349.08 670.59,4 -4,4"/>
<!-- reset -->
<g id="node1" class="node">
<title>reset</title>
<ellipse fill="black" stroke="black" cx="260.59" cy="-343.28" rx="1.8" ry="1.8"/>
</g>
<!-- cent0 -->
<g id="node2" class="node">
<title>cent0</title>
<ellipse fill="none" stroke="black" cx="260.59" cy="-260.59" rx="29.8" ry="29.8"/>
<text text-anchor="middle" x="260.59" y="-256.89" font-family="Times,serif" font-size="14.00">cent0</text>
</g>
<!-- reset&#45;&gt;cent0 -->
<g id="edge1" class="edge">
<title>reset&#45;&gt;cent0</title>
<path fill="none" stroke="black" d="M260.59,-341.38C260.59,-337.16 260.59,-318.9 260.59,-300.91"/>
<polygon fill="black" stroke="black" points="264.09,-300.75 260.59,-290.75 257.09,-300.75 264.09,-300.75"/>
<text text-anchor="middle" x="331.59" y="-312.28" font-family="Times,serif" font-size="14.00">[reset=1&#39;b0 / coffee=1&#39;b0]</text>
</g>
<!-- cent0&#45;&gt;cent0 -->
<g id="edge2" class="edge">
<title>cent0&#45;&gt;cent0</title>
<path fill="none" stroke="black" d="M289.11,-270.69C299.74,-271.02 308.49,-267.65 308.49,-260.59 308.49,-255.95 304.72,-252.9 299.13,-251.45"/>
<polygon fill="black" stroke="black" points="299.4,-247.96 289.11,-250.48 298.73,-254.93 299.4,-247.96"/>
<text text-anchor="middle" x="383.99" y="-256.89" font-family="Times,serif" font-size="14.00">[coins=2&#39;b00 / coffee=1&#39;b0]</text>
</g>
<!-- cent5 -->
<g id="node3" class="node">
<title>cent5</title>
<ellipse fill="none" stroke="black" cx="56.59" cy="-149.79" rx="29.8" ry="29.8"/>
<text text-anchor="middle" x="56.59" y="-146.09" font-family="Times,serif" font-size="14.00">cent5</text>
</g>
<!-- cent0&#45;&gt;cent5 -->
<g id="edge3" class="edge">
<title>cent0&#45;&gt;cent5</title>
<path fill="none" stroke="black" d="M230.61,-258.71C169.33,-256.22 33.09,-246.88 4.59,-212.69 -6.96,-198.83 6.21,-183.27 22.19,-171.22"/>
<polygon fill="black" stroke="black" points="24.5,-173.88 30.68,-165.27 20.48,-168.15 24.5,-173.88"/>
<text text-anchor="middle" x="80.09" y="-201.49" font-family="Times,serif" font-size="14.00">[coins=2&#39;b10 / coffee=1&#39;b0]</text>
</g>
<!-- cent10 -->
<g id="node4" class="node">
<title>cent10</title>
<ellipse fill="none" stroke="black" cx="260.59" cy="-34.45" rx="34.39" ry="34.39"/>
<text text-anchor="middle" x="260.59" y="-30.75" font-family="Times,serif" font-size="14.00">cent10</text>
</g>
<!-- cent0&#45;&gt;cent10 -->
<g id="edge4" class="edge">
<title>cent0&#45;&gt;cent10</title>
<path fill="none" stroke="black" d="M288.23,-248.6C303.4,-240.98 320.85,-229.2 329.59,-212.69 355.75,-163.28 354.67,-136.86 329.59,-86.89 323.12,-74 311.72,-63.51 300.02,-55.45"/>
<polygon fill="black" stroke="black" points="301.82,-52.45 291.51,-50.01 298.05,-58.35 301.82,-52.45"/>
<text text-anchor="middle" x="425.09" y="-146.09" font-family="Times,serif" font-size="14.00">[coins=2&#39;b01 / coffee=1&#39;b0]</text>
</g>
<!-- cent5&#45;&gt;cent0 -->
<g id="edge7" class="edge">
<title>cent5&#45;&gt;cent0</title>
<path fill="none" stroke="black" d="M83.98,-162.56C104.14,-171.51 132.03,-184.5 155.59,-197.69 166.24,-203.65 168.18,-206.32 178.59,-212.69 193.89,-222.04 211.07,-231.96 225.74,-240.25"/>
<polygon fill="black" stroke="black" points="224.08,-243.33 234.51,-245.18 227.52,-237.23 224.08,-243.33"/>
<text text-anchor="middle" x="254.09" y="-201.49" font-family="Times,serif" font-size="14.00">[coins=2&#39;b01 / coffee=1&#39;b1]</text>
</g>
<!-- cent5&#45;&gt;cent5 -->
<g id="edge5" class="edge">
<title>cent5&#45;&gt;cent5</title>
<path fill="none" stroke="black" d="M85.11,-159.89C95.74,-160.23 104.49,-156.86 104.49,-149.79 104.49,-145.15 100.72,-142.11 95.13,-140.66"/>
<polygon fill="black" stroke="black" points="95.4,-137.17 85.11,-139.69 94.73,-144.14 95.4,-137.17"/>
<text text-anchor="middle" x="179.99" y="-146.09" font-family="Times,serif" font-size="14.00">[coins=2&#39;b00 / coffee=1&#39;b0]</text>
</g>
<!-- cent5&#45;&gt;cent10 -->
<g id="edge6" class="edge">
<title>cent5&#45;&gt;cent10</title>
<path fill="none" stroke="black" d="M30.75,-134.37C11.67,-121.88 -8.83,-103.29 4.59,-86.89 30.77,-54.94 149.42,-42.41 215.61,-37.84"/>
<polygon fill="black" stroke="black" points="216.01,-41.32 225.76,-37.17 215.56,-34.34 216.01,-41.32"/>
<text text-anchor="middle" x="80.09" y="-90.69" font-family="Times,serif" font-size="14.00">[coins=2&#39;b10 / coffee=1&#39;b0]</text>
</g>
<!-- cent10&#45;&gt;cent0 -->
<g id="edge10" class="edge">
<title>cent10&#45;&gt;cent0</title>
<path fill="none" stroke="black" d="M295.39,-35.74C350.49,-38.32 456.49,-52.34 504.59,-119.89 520.01,-141.54 520.19,-158.17 504.59,-179.69 457.78,-244.28 357.17,-257.61 300.86,-259.78"/>
<polygon fill="black" stroke="black" points="300.45,-256.29 290.55,-260.07 300.65,-263.29 300.45,-256.29"/>
<text text-anchor="middle" x="591.09" y="-146.09" font-family="Times,serif" font-size="14.00">[coins=2&#39;b10 / coffee=1&#39;b1]</text>
</g>
<!-- cent10&#45;&gt;cent5 -->
<g id="edge9" class="edge">
<title>cent10&#45;&gt;cent5</title>
<path fill="none" stroke="black" d="M231.67,-53.42C215.94,-63.24 196.15,-75.66 178.59,-86.89 168.31,-93.47 166.24,-95.93 155.59,-101.89 135.43,-113.18 112.11,-124.31 93.17,-132.9"/>
<polygon fill="black" stroke="black" points="91.68,-129.73 83.98,-137.02 94.54,-136.12 91.68,-129.73"/>
<text text-anchor="middle" x="254.09" y="-90.69" font-family="Times,serif" font-size="14.00">[coins=2&#39;b01 / coffee=1&#39;b1]</text>
</g>
<!-- cent10&#45;&gt;cent10 -->
<g id="edge8" class="edge">
<title>cent10&#45;&gt;cent10</title>
<path fill="none" stroke="black" d="M293.37,-45.32C304.3,-45.32 313.04,-41.7 313.04,-34.45 313.04,-29.69 309.28,-26.49 303.6,-24.86"/>
<polygon fill="black" stroke="black" points="303.73,-21.35 293.37,-23.57 302.86,-28.29 303.73,-21.35"/>
<text text-anchor="middle" x="388.54" y="-30.75" font-family="Times,serif" font-size="14.00">[coins=2&#39;b00 / coffee=1&#39;b0]</text>
</g>
</g>
</svg>
