<?xml version="1.0" encoding="UTF-8" standalone="no"?>
<!DOCTYPE svg PUBLIC "-//W3C//DTD SVG 1.1//EN"
 "http://www.w3.org/Graphics/SVG/1.1/DTD/svg11.dtd">
<!-- Generated by graphviz version 2.43.0 (0)
 -->
<!-- Title: Moore Pages: 1 -->
<svg width="534pt" height="839pt"
 viewBox="0.00 0.00 533.96 839.36" xmlns="http://www.w3.org/2000/svg" xmlns:xlink="http://www.w3.org/1999/xlink">
<g id="graph0" class="graph" transform="scale(1 1) rotate(0) translate(4 835.36)">
<title>Moore</title>
<polygon fill="white" stroke="transparent" points="-4,4 -4,-835.36 529.96,-835.36 529.96,4 -4,4"/>
<!-- reset -->
<g id="node1" class="node">
<title>reset</title>
<ellipse fill="black" stroke="black" cx="275.96" cy="-829.56" rx="1.8" ry="1.8"/>
</g>
<!-- cent0 -->
<g id="node2" class="node">
<title>cent0</title>
<ellipse fill="none" stroke="black" cx="275.96" cy="-719.48" rx="57.05" ry="57.05"/>
<text text-anchor="middle" x="275.96" y="-731.28" font-family="Times,serif" font-size="14.00">cent0</text>
<text text-anchor="middle" x="275.96" y="-700.28" font-family="Times,serif" font-size="14.00">coffee=1&#39;b0</text>
</g>
<!-- reset&#45;&gt;cent0 -->
<g id="edge1" class="edge">
<title>reset&#45;&gt;cent0</title>
<path fill="none" stroke="black" d="M275.96,-827.34C275.96,-822.78 275.96,-805.95 275.96,-786.95"/>
<polygon fill="black" stroke="black" points="279.46,-786.87 275.96,-776.87 272.46,-786.87 279.46,-786.87"/>
<text text-anchor="middle" x="304.46" y="-798.56" font-family="Times,serif" font-size="14.00">reset=1&#39;b0</text>
</g>
<!-- cent5 -->
<g id="node3" class="node">
<title>cent5</title>
<ellipse fill="none" stroke="black" cx="133.96" cy="-553.93" rx="57.05" ry="57.05"/>
<text text-anchor="middle" x="133.96" y="-565.73" font-family="Times,serif" font-size="14.00">cent5</text>
<text text-anchor="middle" x="133.96" y="-534.73" font-family="Times,serif" font-size="14.00">coffee=1&#39;b0</text>
</g>
<!-- cent0&#45;&gt;cent5 -->
<g id="edge2" class="edge">
<title>cent0&#45;&gt;cent5</title>
<path fill="none" stroke="black" d="M232.56,-682.04C219.85,-670.5 206.33,-657.33 194.96,-644.21 186.24,-634.14 177.67,-622.81 169.83,-611.67"/>
<polygon fill="black" stroke="black" points="172.56,-609.46 164,-603.22 166.8,-613.44 172.56,-609.46"/>
<text text-anchor="middle" x="228.46" y="-633.01" font-family="Times,serif" font-size="14.00">coins=2&#39;b10</text>
</g>
<!-- cent10 -->
<g id="node4" class="node">
<title>cent10</title>
<ellipse fill="none" stroke="black" cx="275.96" cy="-388.38" rx="57.05" ry="57.05"/>
<text text-anchor="middle" x="275.96" y="-400.18" font-family="Times,serif" font-size="14.00">cent10</text>
<text text-anchor="middle" x="275.96" y="-369.18" font-family="Times,serif" font-size="14.00">coffee=1&#39;b0</text>
</g>
<!-- cent0&#45;&gt;cent10 -->
<g id="edge3" class="edge">
<title>cent0&#45;&gt;cent10</title>
<path fill="none" stroke="black" d="M275.96,-661.91C275.96,-604.75 275.96,-516.47 275.96,-455.97"/>
<polygon fill="black" stroke="black" points="279.46,-455.76 275.96,-445.76 272.46,-455.76 279.46,-455.76"/>
<text text-anchor="middle" x="309.46" y="-550.23" font-family="Times,serif" font-size="14.00">coins=2&#39;b01</text>
</g>
<!-- cent5&#45;&gt;cent10 -->
<g id="edge4" class="edge">
<title>cent5&#45;&gt;cent10</title>
<path fill="none" stroke="black" d="M164,-504.64C173.31,-490.92 184.01,-476.28 194.96,-463.65 204.11,-453.1 214.65,-442.5 225.04,-432.75"/>
<polygon fill="black" stroke="black" points="227.58,-435.17 232.56,-425.82 222.83,-430.03 227.58,-435.17"/>
<text text-anchor="middle" x="228.46" y="-467.45" font-family="Times,serif" font-size="14.00">coins=2&#39;b10</text>
</g>
<!-- cent0c -->
<g id="node6" class="node">
<title>cent0c</title>
<ellipse fill="none" stroke="black" cx="219.96" cy="-57.28" rx="57.05" ry="57.05"/>
<text text-anchor="middle" x="219.96" y="-69.08" font-family="Times,serif" font-size="14.00">cent0c</text>
<text text-anchor="middle" x="219.96" y="-38.08" font-family="Times,serif" font-size="14.00">coffee=1&#39;b1</text>
</g>
<!-- cent5&#45;&gt;cent0c -->
<g id="edge5" class="edge">
<title>cent5&#45;&gt;cent0c</title>
<path fill="none" stroke="black" d="M111.59,-500.89C92.12,-449.85 68.02,-369.52 74.96,-298.1 80.76,-238.35 71.36,-217.79 100.96,-165.55 116.41,-138.27 141.32,-114.22 164.37,-95.84"/>
<polygon fill="black" stroke="black" points="166.68,-98.48 172.43,-89.58 162.38,-92.95 166.68,-98.48"/>
<text text-anchor="middle" x="108.46" y="-301.9" font-family="Times,serif" font-size="14.00">coins=2&#39;b01</text>
</g>
<!-- cent5c -->
<g id="node5" class="node">
<title>cent5c</title>
<ellipse fill="none" stroke="black" cx="166.96" cy="-222.83" rx="57.05" ry="57.05"/>
<text text-anchor="middle" x="166.96" y="-234.63" font-family="Times,serif" font-size="14.00">cent5c</text>
<text text-anchor="middle" x="166.96" y="-203.63" font-family="Times,serif" font-size="14.00">coffee=1&#39;b1</text>
</g>
<!-- cent10&#45;&gt;cent5c -->
<g id="edge7" class="edge">
<title>cent10&#45;&gt;cent5c</title>
<path fill="none" stroke="black" d="M255.16,-334.93C249.33,-322.45 242.5,-309.47 234.96,-298.1 228.89,-288.96 221.7,-279.83 214.32,-271.26"/>
<polygon fill="black" stroke="black" points="216.76,-268.74 207.51,-263.57 211.52,-273.38 216.76,-268.74"/>
<text text-anchor="middle" x="276.46" y="-301.9" font-family="Times,serif" font-size="14.00">coins=2&#39;b01</text>
</g>
<!-- cent10&#45;&gt;cent0c -->
<g id="edge6" class="edge">
<title>cent10&#45;&gt;cent0c</title>
<path fill="none" stroke="black" d="M311.68,-343.23C319.37,-328.35 322.85,-312.01 313.96,-298.1 303.67,-282.02 286.71,-295.15 274.96,-280.1 233.88,-227.49 264.64,-196.92 246.96,-132.55 245.9,-128.72 244.74,-124.8 243.51,-120.86"/>
<polygon fill="black" stroke="black" points="246.75,-119.52 240.33,-111.09 240.1,-121.68 246.75,-119.52"/>
<text text-anchor="middle" x="308.46" y="-219.13" font-family="Times,serif" font-size="14.00">coins=2&#39;b10</text>
</g>
<!-- cent5c&#45;&gt;cent5 -->
<g id="edge12" class="edge">
<title>cent5c&#45;&gt;cent5</title>
<path fill="none" stroke="black" d="M152.77,-278.34C148.94,-295.15 145.23,-313.79 142.96,-331.1 136.15,-383.04 134.03,-442.36 133.55,-486.58"/>
<polygon fill="black" stroke="black" points="130.04,-486.59 133.46,-496.62 137.04,-486.65 130.04,-486.59"/>
<text text-anchor="middle" x="176.46" y="-384.68" font-family="Times,serif" font-size="14.00">coins=2&#39;b00</text>
</g>
<!-- cent5c&#45;&gt;cent10 -->
<g id="edge13" class="edge">
<title>cent5c&#45;&gt;cent10</title>
<path fill="none" stroke="black" d="M155.03,-279.07C155.1,-291.04 157.43,-303.1 163.96,-313.1 174.84,-329.76 187.91,-320.84 204.96,-331.1 211.59,-335.1 218.29,-339.63 224.8,-344.36"/>
<polygon fill="black" stroke="black" points="222.81,-347.24 232.92,-350.42 227,-341.63 222.81,-347.24"/>
<text text-anchor="middle" x="197.46" y="-301.9" font-family="Times,serif" font-size="14.00">coins=2&#39;b10</text>
</g>
<!-- cent5c&#45;&gt;cent0c -->
<g id="edge11" class="edge">
<title>cent5c&#45;&gt;cent0c</title>
<path fill="none" stroke="black" d="M172.12,-165.41C173.98,-154.35 176.51,-142.96 179.96,-132.55 181.78,-127.03 184,-121.43 186.46,-115.92"/>
<polygon fill="black" stroke="black" points="189.68,-117.28 190.77,-106.74 183.35,-114.3 189.68,-117.28"/>
<text text-anchor="middle" x="213.46" y="-136.35" font-family="Times,serif" font-size="14.00">coins=2&#39;b01</text>
</g>
<!-- cent0c&#45;&gt;cent0 -->
<g id="edge9" class="edge">
<title>cent0c&#45;&gt;cent0</title>
<path fill="none" stroke="black" d="M275.99,-70.45C346.63,-89.47 458.96,-133.59 458.96,-221.83 458.96,-554.93 458.96,-554.93 458.96,-554.93 458.96,-621.19 391.43,-667.3 338.42,-693.29"/>
<polygon fill="black" stroke="black" points="336.9,-690.14 329.38,-697.6 339.91,-696.46 336.9,-690.14"/>
<text text-anchor="middle" x="492.46" y="-384.68" font-family="Times,serif" font-size="14.00">coins=2&#39;b00</text>
</g>
<!-- cent0c&#45;&gt;cent5 -->
<g id="edge10" class="edge">
<title>cent0c&#45;&gt;cent5</title>
<path fill="none" stroke="black" d="M171.58,-88.36C151.69,-101.3 128.74,-117.01 108.96,-132.55 40.44,-186.37 24.66,-213.47 3.96,-298.1 -15.09,-375.95 41.53,-456.91 85.99,-506.12"/>
<polygon fill="black" stroke="black" points="83.66,-508.76 93.01,-513.74 88.81,-504.02 83.66,-508.76"/>
<text text-anchor="middle" x="37.46" y="-301.9" font-family="Times,serif" font-size="14.00">coins=2&#39;b10</text>
</g>
<!-- cent0c&#45;&gt;cent10 -->
<g id="edge8" class="edge">
<title>cent0c&#45;&gt;cent10</title>
<path fill="none" stroke="black" d="M269.17,-86.81C296.1,-105.42 326.96,-132.4 341.96,-165.55 369.07,-225.5 360.85,-255.01 329.96,-313.1 326.17,-320.23 321.76,-327.44 317.14,-334.43"/>
<polygon fill="black" stroke="black" points="313.94,-332.9 311.19,-343.13 319.72,-336.85 313.94,-332.9"/>
<text text-anchor="middle" x="391.46" y="-219.13" font-family="Times,serif" font-size="14.00">coins=2&#39;b01</text>
</g>
</g>
</svg>
