<?xml version="1.0" encoding="UTF-8" standalone="no"?>
<!DOCTYPE svg PUBLIC "-//W3C//DTD SVG 1.1//EN"
 "http://www.w3.org/Graphics/SVG/1.1/DTD/svg11.dtd">
<!-- Generated by graphviz version 2.43.0 (0)
 -->
<!-- Title: vending_machine Pages: 1 -->
<svg width="507pt" height="1274pt"
 viewBox="0.00 0.00 507.00 1274.45" xmlns="http://www.w3.org/2000/svg" xmlns:xlink="http://www.w3.org/1999/xlink">
<g id="graph0" class="graph" transform="scale(1 1) rotate(0) translate(4 1270.45)">
<title>vending_machine</title>
<polygon fill="white" stroke="transparent" points="-4,4 -4,-1270.45 503,-1270.45 503,4 -4,4"/>
<!-- reset -->
<g id="node1" class="node">
<title>reset</title>
<ellipse fill="black" stroke="black" cx="196" cy="-1264.65" rx="1.8" ry="1.8"/>
</g>
<!-- PUT_COIN -->
<g id="node2" class="node">
<title>PUT_COIN</title>
<ellipse fill="none" stroke="black" cx="196" cy="-1140.43" rx="71.34" ry="71.34"/>
<text text-anchor="middle" x="196" y="-1159.73" font-family="Times,serif" font-size="14.00">PUT_COIN</text>
<text text-anchor="middle" x="196" y="-1128.73" font-family="Times,serif" font-size="14.00">soda=1&#39;b0</text>
<text text-anchor="middle" x="196" y="-1113.73" font-family="Times,serif" font-size="14.00">coin_out=2&#39;b00</text>
</g>
<!-- reset&#45;&gt;PUT_COIN -->
<g id="edge1" class="edge">
<title>reset&#45;&gt;PUT_COIN</title>
<path fill="none" stroke="black" d="M196,-1262.28C196,-1257.56 196,-1241.28 196,-1222.12"/>
<polygon fill="black" stroke="black" points="199.5,-1221.88 196,-1211.88 192.5,-1221.88 199.5,-1221.88"/>
<text text-anchor="middle" x="224.5" y="-1233.65" font-family="Times,serif" font-size="14.00">reset=1&#39;b1</text>
</g>
<!-- PUT_COIN&#45;&gt;PUT_COIN -->
<g id="edge2" class="edge">
<title>PUT_COIN&#45;&gt;PUT_COIN</title>
<path fill="none" stroke="black" d="M265.73,-1157.16C277.38,-1154.82 285.42,-1149.24 285.42,-1140.43 285.42,-1134.37 281.62,-1129.84 275.46,-1126.84"/>
<polygon fill="black" stroke="black" points="276.32,-1123.45 265.73,-1123.7 274.17,-1130.11 276.32,-1123.45"/>
<text text-anchor="middle" x="324.92" y="-1136.73" font-family="Times,serif" font-size="14.00">coin_in=2&#39;b00</text>
</g>
<!-- INPUT1 -->
<g id="node3" class="node">
<title>INPUT1</title>
<ellipse fill="none" stroke="black" cx="247" cy="-946.6" rx="71.34" ry="71.34"/>
<text text-anchor="middle" x="247" y="-965.9" font-family="Times,serif" font-size="14.00">INPUT1</text>
<text text-anchor="middle" x="247" y="-934.9" font-family="Times,serif" font-size="14.00">soda=1&#39;b0</text>
<text text-anchor="middle" x="247" y="-919.9" font-family="Times,serif" font-size="14.00">coin_out=2&#39;b00</text>
</g>
<!-- PUT_COIN&#45;&gt;INPUT1 -->
<g id="edge3" class="edge">
<title>PUT_COIN&#45;&gt;INPUT1</title>
<path fill="none" stroke="black" d="M214.12,-1071.26C218.05,-1056.5 222.22,-1040.79 226.24,-1025.69"/>
<polygon fill="black" stroke="black" points="229.66,-1026.44 228.85,-1015.87 222.9,-1024.64 229.66,-1026.44"/>
<text text-anchor="middle" x="262.5" y="-1039.81" font-family="Times,serif" font-size="14.00">coin_in=2&#39;b01</text>
</g>
<!-- INPUT5 -->
<g id="node4" class="node">
<title>INPUT5</title>
<ellipse fill="none" stroke="black" cx="196" cy="-431.09" rx="71.34" ry="71.34"/>
<text text-anchor="middle" x="196" y="-450.39" font-family="Times,serif" font-size="14.00">INPUT5</text>
<text text-anchor="middle" x="196" y="-419.39" font-family="Times,serif" font-size="14.00">soda=1&#39;b0</text>
<text text-anchor="middle" x="196" y="-404.39" font-family="Times,serif" font-size="14.00">coin_out=2&#39;b10</text>
</g>
<!-- PUT_COIN&#45;&gt;INPUT5 -->
<g id="edge4" class="edge">
<title>PUT_COIN&#45;&gt;INPUT5</title>
<path fill="none" stroke="black" d="M170.21,-1073.67C149.54,-1017.25 122.21,-933.25 111,-857.18 105.07,-816.93 59.27,-1010.2 116,-681.34 126.36,-621.3 147.81,-555.79 165.89,-507"/>
<polygon fill="black" stroke="black" points="169.23,-508.07 169.46,-497.47 162.67,-505.61 169.23,-508.07"/>
<text text-anchor="middle" x="150.5" y="-845.98" font-family="Times,serif" font-size="14.00">coin_in=2&#39;b11</text>
</g>
<!-- SODA_OUT -->
<g id="node8" class="node">
<title>SODA_OUT</title>
<ellipse fill="none" stroke="black" cx="298" cy="-71.42" rx="71.34" ry="71.34"/>
<text text-anchor="middle" x="298" y="-90.72" font-family="Times,serif" font-size="14.00">SODA_OUT</text>
<text text-anchor="middle" x="298" y="-59.72" font-family="Times,serif" font-size="14.00">soda=1&#39;b1</text>
<text text-anchor="middle" x="298" y="-44.72" font-family="Times,serif" font-size="14.00">coin_out=2&#39;b00</text>
</g>
<!-- PUT_COIN&#45;&gt;SODA_OUT -->
<g id="edge5" class="edge">
<title>PUT_COIN&#45;&gt;SODA_OUT</title>
<path fill="none" stroke="black" d="M131.55,-1109.54C74.42,-1078.09 0,-1022.71 0,-947.6 0,-947.6 0,-947.6 0,-250.25 0,-148.73 129.11,-103.81 217.37,-84.96"/>
<polygon fill="black" stroke="black" points="218.29,-88.34 227.38,-82.9 216.88,-81.49 218.29,-88.34"/>
<text text-anchor="middle" x="39.5" y="-588.22" font-family="Times,serif" font-size="14.00">coin_in=2&#39;b10</text>
</g>
<!-- INPUT1&#45;&gt;INPUT1 -->
<g id="edge6" class="edge">
<title>INPUT1&#45;&gt;INPUT1</title>
<path fill="none" stroke="black" d="M316.73,-963.33C328.38,-960.98 336.42,-955.41 336.42,-946.6 336.42,-940.54 332.62,-936.01 326.46,-933.01"/>
<polygon fill="black" stroke="black" points="327.32,-929.61 316.73,-929.87 325.17,-936.27 327.32,-929.61"/>
<text text-anchor="middle" x="375.92" y="-942.9" font-family="Times,serif" font-size="14.00">coin_in=2&#39;b00</text>
</g>
<!-- INPUT6 -->
<g id="node5" class="node">
<title>INPUT6</title>
<ellipse fill="none" stroke="black" cx="196" cy="-752.76" rx="71.34" ry="71.34"/>
<text text-anchor="middle" x="196" y="-772.06" font-family="Times,serif" font-size="14.00">INPUT6</text>
<text text-anchor="middle" x="196" y="-741.06" font-family="Times,serif" font-size="14.00">soda=1&#39;b0</text>
<text text-anchor="middle" x="196" y="-726.06" font-family="Times,serif" font-size="14.00">coin_out=2&#39;b01</text>
</g>
<!-- INPUT1&#45;&gt;INPUT6 -->
<g id="edge9" class="edge">
<title>INPUT1&#45;&gt;INPUT6</title>
<path fill="none" stroke="black" d="M208.29,-886.47C203.67,-877 199.65,-867.06 197,-857.18 195.04,-849.88 193.7,-842.19 192.83,-834.43"/>
<polygon fill="black" stroke="black" points="196.29,-833.88 191.93,-824.22 189.32,-834.49 196.29,-833.88"/>
<text text-anchor="middle" x="236.5" y="-845.98" font-family="Times,serif" font-size="14.00">coin_in=2&#39;b11</text>
</g>
<!-- INPUT3 -->
<g id="node6" class="node">
<title>INPUT3</title>
<ellipse fill="none" stroke="black" cx="298" cy="-591.92" rx="71.34" ry="71.34"/>
<text text-anchor="middle" x="298" y="-611.22" font-family="Times,serif" font-size="14.00">INPUT3</text>
<text text-anchor="middle" x="298" y="-580.22" font-family="Times,serif" font-size="14.00">soda=1&#39;b0</text>
<text text-anchor="middle" x="298" y="-565.22" font-family="Times,serif" font-size="14.00">coin_out=2&#39;b01</text>
</g>
<!-- INPUT1&#45;&gt;INPUT3 -->
<g id="edge7" class="edge">
<title>INPUT1&#45;&gt;INPUT3</title>
<path fill="none" stroke="black" d="M270.68,-878.93C272.72,-871.65 274.56,-864.3 276,-857.18 288.33,-796.37 293.77,-726.36 296.16,-673.68"/>
<polygon fill="black" stroke="black" points="299.67,-673.52 296.6,-663.38 292.68,-673.22 299.67,-673.52"/>
<text text-anchor="middle" x="316.5" y="-845.98" font-family="Times,serif" font-size="14.00">coin_in=2&#39;b10</text>
</g>
<!-- INPUT1&#45;&gt;SODA_OUT -->
<g id="edge8" class="edge">
<title>INPUT1&#45;&gt;SODA_OUT</title>
<path fill="none" stroke="black" d="M307.76,-908.66C326.74,-894.59 346.29,-877.07 360,-857.18 387.3,-817.56 392,-801.87 392,-753.76 392,-753.76 392,-753.76 392,-250.25 392,-208.58 371.57,-167.11 349.76,-134.72"/>
<polygon fill="black" stroke="black" points="352.47,-132.48 343.9,-126.26 346.72,-136.47 352.47,-132.48"/>
<text text-anchor="middle" x="431.5" y="-427.39" font-family="Times,serif" font-size="14.00">coin_in=2&#39;b01</text>
</g>
<!-- RETURN1 -->
<g id="node7" class="node">
<title>RETURN1</title>
<ellipse fill="none" stroke="black" cx="198" cy="-251.25" rx="71.34" ry="71.34"/>
<text text-anchor="middle" x="198" y="-270.55" font-family="Times,serif" font-size="14.00">RETURN1</text>
<text text-anchor="middle" x="198" y="-239.55" font-family="Times,serif" font-size="14.00">soda=1&#39;b0</text>
<text text-anchor="middle" x="198" y="-224.55" font-family="Times,serif" font-size="14.00">coin_out=2&#39;b01</text>
</g>
<!-- INPUT5&#45;&gt;RETURN1 -->
<g id="edge10" class="edge">
<title>INPUT5&#45;&gt;RETURN1</title>
<path fill="none" stroke="black" d="M196.79,-359.55C196.89,-350.74 196.99,-341.68 197.09,-332.74"/>
<polygon fill="black" stroke="black" points="200.59,-332.75 197.21,-322.71 193.6,-332.67 200.59,-332.75"/>
</g>
<!-- INPUT6&#45;&gt;INPUT5 -->
<g id="edge11" class="edge">
<title>INPUT6&#45;&gt;INPUT5</title>
<path fill="none" stroke="black" d="M196,-681.21C196,-631.48 196,-564.77 196,-512.9"/>
<polygon fill="black" stroke="black" points="199.5,-512.73 196,-502.73 192.5,-512.73 199.5,-512.73"/>
</g>
<!-- INPUT3&#45;&gt;SODA_OUT -->
<g id="edge12" class="edge">
<title>INPUT3&#45;&gt;SODA_OUT</title>
<path fill="none" stroke="black" d="M298,-520.46C298,-424.75 298,-254.09 298,-153.28"/>
<polygon fill="black" stroke="black" points="301.5,-153.15 298,-143.15 294.5,-153.15 301.5,-153.15"/>
</g>
<!-- RETURN1&#45;&gt;SODA_OUT -->
<g id="edge13" class="edge">
<title>RETURN1&#45;&gt;SODA_OUT</title>
<path fill="none" stroke="black" d="M232.69,-188.55C240.99,-173.79 249.92,-157.93 258.42,-142.81"/>
<polygon fill="black" stroke="black" points="261.52,-144.44 263.37,-134.01 255.41,-141.01 261.52,-144.44"/>
</g>
<!-- SODA_OUT&#45;&gt;PUT_COIN -->
<g id="edge14" class="edge">
<title>SODA_OUT&#45;&gt;PUT_COIN</title>
<path fill="none" stroke="black" d="M364.37,-98.55C422.92,-126.47 499,-176.87 499,-250.25 499,-947.6 499,-947.6 499,-947.6 499,-1053.22 365.95,-1103.09 276.18,-1124.73"/>
<polygon fill="black" stroke="black" points="275.22,-1121.36 266.28,-1127.04 276.81,-1128.17 275.22,-1121.36"/>
</g>
</g>
</svg>
